<mxfile host="app.diagrams.net" modified="2024-03-04T03:58:29.168Z" agent="Mozilla/5.0 (Windows NT 10.0; Win64; x64) AppleWebKit/537.36 (KHTML, like Gecko) Chrome/123.0.0.0 Safari/537.36 Edg/123.0.0.0" etag="h1joGaNECB-g-agCi_Iu" version="24.0.1" type="github">
  <diagram id="UdsSIDulATGfqtP_NgU9" name="第 1 页">
    <mxGraphModel dx="2460" dy="892" grid="1" gridSize="10" guides="1" tooltips="1" connect="1" arrows="1" fold="1" page="1" pageScale="1" pageWidth="827" pageHeight="1169" background="none" math="0" shadow="0">
      <root>
        <mxCell id="0" />
        <mxCell id="1" parent="0" />
        <mxCell id="vh_hXMYHBwvdVt0SuTvG-12" value="" style="edgeStyle=orthogonalEdgeStyle;rounded=0;orthogonalLoop=1;jettySize=auto;html=1;entryX=0.5;entryY=0;entryDx=0;entryDy=0;" edge="1" parent="1" source="vh_hXMYHBwvdVt0SuTvG-4" target="vh_hXMYHBwvdVt0SuTvG-17">
          <mxGeometry relative="1" as="geometry">
            <mxPoint x="-80" y="610" as="targetPoint" />
          </mxGeometry>
        </mxCell>
        <mxCell id="vh_hXMYHBwvdVt0SuTvG-4" value="" style="strokeWidth=2;html=1;shape=mxgraph.flowchart.start_2;whiteSpace=wrap;sketch=1;curveFitting=1;jiggle=2;" vertex="1" parent="1">
          <mxGeometry x="-115" y="450" width="70" height="70" as="geometry" />
        </mxCell>
        <mxCell id="vh_hXMYHBwvdVt0SuTvG-19" style="edgeStyle=orthogonalEdgeStyle;rounded=0;sketch=1;hachureGap=4;jiggle=2;curveFitting=1;orthogonalLoop=1;jettySize=auto;html=1;" edge="1" parent="1" source="vh_hXMYHBwvdVt0SuTvG-17" target="vh_hXMYHBwvdVt0SuTvG-18">
          <mxGeometry relative="1" as="geometry" />
        </mxCell>
        <mxCell id="vh_hXMYHBwvdVt0SuTvG-21" value="" style="edgeStyle=orthogonalEdgeStyle;rounded=0;sketch=1;hachureGap=4;jiggle=2;curveFitting=1;orthogonalLoop=1;jettySize=auto;html=1;" edge="1" parent="1" source="vh_hXMYHBwvdVt0SuTvG-17" target="vh_hXMYHBwvdVt0SuTvG-20">
          <mxGeometry relative="1" as="geometry" />
        </mxCell>
        <mxCell id="vh_hXMYHBwvdVt0SuTvG-17" value="&lt;span style=&quot;color: rgb(51, 51, 51);&quot;&gt;根据设备uiid、modelInfoId获取pushJudge&lt;/span&gt;" style="rounded=1;whiteSpace=wrap;html=1;sketch=1;curveFitting=1;jiggle=2;" vertex="1" parent="1">
          <mxGeometry x="-200" y="600" width="240" height="100" as="geometry" />
        </mxCell>
        <mxCell id="vh_hXMYHBwvdVt0SuTvG-18" value="获取pushjudge的优先级是先使用modelInfoId找不到再使用uiid" style="strokeWidth=2;html=1;shape=mxgraph.flowchart.annotation_1;align=left;pointerEvents=1;sketch=1;hachureGap=4;jiggle=2;curveFitting=1;" vertex="1" parent="1">
          <mxGeometry x="80" y="627.5" width="50" height="45" as="geometry" />
        </mxCell>
        <mxCell id="vh_hXMYHBwvdVt0SuTvG-20" value="pushjudge 获取pushSetting" style="rounded=1;whiteSpace=wrap;html=1;sketch=1;curveFitting=1;jiggle=2;" vertex="1" parent="1">
          <mxGeometry x="-200" y="780" width="240" height="100" as="geometry" />
        </mxCell>
      </root>
    </mxGraphModel>
  </diagram>
</mxfile>
